<?xml version="1.0" encoding="UTF-8"?>
<svg width="100px" height="102px" viewBox="0 0 100 102" version="1.1" xmlns="http://www.w3.org/2000/svg" xmlns:xlink="http://www.w3.org/1999/xlink">
    <title>Harmony</title>
    <g id="Page-1" stroke="none" stroke-width="1" fill="none" fill-rule="evenodd">
        <path d="M78.4077486,1.04087154 C66.523347,1.04080738 56.8781717,10.6542897 56.8391212,22.5386273 L56.8391212,46.3751498 C54.6184739,46.5405172 52.3505788,46.6350128 49.988188,46.6350128 C47.6257973,46.6350128 45.3815261,46.6350128 43.1372549,46.847628 L43.1372549,22.5386273 C43.1372547,10.6266034 33.4806513,0.970000136 21.5686275,0.970000136 C9.65660357,0.970000136 0,10.6266034 0,22.5386273 L0,79.5194919 C0,91.431516 9.65660343,101.088119 21.5686275,101.088119 C33.4806515,101.088119 43.1372549,91.431516 43.1372549,79.5194919 L43.1372549,55.6829693 C45.3579022,55.5412259 47.6494212,55.4467303 49.988188,55.4467303 C52.3269549,55.4467303 54.7129695,55.4467303 56.8391212,55.2104912 L56.8391212,79.5194919 C57.2243199,91.1602091 66.772472,100.397633 78.4195606,100.397633 C90.0666492,100.397633 99.6148013,91.1602091 100,79.5194919 L100,22.5386273 C99.9479726,10.6504756 90.2960142,1.04075769 78.4077486,1.04087154 Z M21.5686275,9.85258899 C28.5826171,9.85258899 34.2758876,15.524686 34.3019135,22.5386273 L34.3019135,47.7925843 C27.9888705,48.7222897 21.8253828,50.4776129 15.9697614,53.0134678 C13.4429971,54.1369606 11.0629718,55.5649757 8.88258918,57.2657711 L8.88258918,22.5386273 C8.90849887,15.543082 14.5730822,9.87849868 21.5686275,9.85258899 Z M34.3019135,79.5194919 C34.3019135,86.5518916 28.6010272,92.252778 21.5686275,92.252778 C14.5362277,92.252778 8.83534137,86.5518916 8.83534137,79.5194919 L8.83534137,73.8025063 C8.83534137,68.770614 12.8277817,63.9749608 19.5369714,60.9983485 C24.2636981,58.9599965 29.2222481,57.5081333 34.3019135,56.6751735 L34.3019135,79.5194919 Z M78.4077486,92.2291541 C71.3883959,92.2291541 65.6980865,86.5388446 65.6980865,79.5194919 L65.6980865,54.2891588 C72.0099204,53.3664799 78.1733031,51.619129 84.0302386,49.0918992 C86.559918,47.983769 88.9408403,46.5631522 91.1174108,44.8632198 L91.1174108,79.5194919 C91.1044099,86.5334522 85.421709,92.2161531 78.4077486,92.2291541 L78.4077486,92.2291541 Z M80.4394047,41.0361468 C75.7196454,43.0711019 70.7693319,44.5228765 65.6980865,45.3593218 L65.6980865,22.5386273 C65.9917394,15.7258143 71.6004219,10.3536754 78.4195606,10.3536754 C85.2386993,10.3536754 90.8473818,15.7258143 91.1410347,22.5386273 L91.1410347,28.2556129 C91.1410347,33.2875051 87.1485944,38.0595344 80.4394047,41.0361468 Z" id="Shape" fill="#00B0EF" fill-rule="nonzero"></path>
    </g>
</svg>
